# xmcd
#
# Track frame offsets: 
#        150
#        15580
#        32810
#        47102
#        59912
#        74940
#        92255
#        114085
#        125572
#        137322
#        166182
#        181145
#        196267
#        208165
#        221100
#        242565
#        254850
#        269465
#        285172
#        295665
#        306950
#        324977
#
# Disc length: 4590 seconds
#
# Revision: 1
# Processed by: cddbd v1.5PL3 Copyright (c) Steve Scherf et al.
# Submitted via: ExactAudioCopy v0.95a4
#
DISCID=4c11ec16
DTITLE=Various Artist - All That Blues From Sweden! Volume One
DYEAR=1993
DGENRE=blues
TTITLE0=The Way You Love-Wilmer X
TTITLE1=Roll Baby Roll-Jump For Joy
TTITLE2=You Never Miss Your Water-Blues On The Rocks
TTITLE3=Death Letter Blues-Stefan Sjoholm
TTITLE4=Te Ni Nee Ni Nu-Savannah Moon
TTITLE5=Jumpin' With Walter-Nightcats
TTITLE6=Been Out All Night-Grizzly
TTITLE7=Learning How To Cheat On You-Sue's Blues
TTITLE8=Fool No More-Feelin' Blue
TTITLE9=St. James Infirmary-Baba Blues
TTITLE10=Apelle Moi Bebe Elle Ma Dit-Phantom Flyers
TTITLE11=May I Lean-Two Tons Of Heavy Joy
TTITLE12=Sweet Red Wine-Allen Finney
TTITLE13=She Wants To Sell My Monkey-Bluesvader
TTITLE14=I Only Have Love For You-Down Home Cooking Blues Band
TTITLE15=I Love You Honey-Hogtomt Blues
TTITLE16=Mississippi Blues-Sivert Bramstedt and Janne Sjostrom
TTITLE17=Monday Shuffle-Boogie Station
TTITLE18=I Just Keep Loving Her-Go Betters
TTITLE19=Lonesome La-La-Bluesrockers
TTITLE20=Windy City Blues-Telge Blues
TTITLE21=I Hear Some Blues Downstairs-J Leino and The Blues Guys
EXTD=
EXTT0=
EXTT1=
EXTT2=
EXTT3=
EXTT4=
EXTT5=
EXTT6=
EXTT7=
EXTT8=
EXTT9=
EXTT10=
EXTT11=
EXTT12=
EXTT13=
EXTT14=Featuring Bob Manning
EXTT15=
EXTT16=
EXTT17=Featuring Jukka Tolonen
EXTT18=
EXTT19=Bonus Track: Swedish Blues From The Past
EXTT20=Bonus Track: Swedish Blues From The Past
EXTT21=Bonus Track: Blues From Finland
PLAYORDER=
